<?xml version="1.0" encoding="UTF-8"?>
<svg id="Layer_1" data-name="Layer 1" xmlns="http://www.w3.org/2000/svg" viewBox="0 0 100 100">
  <defs>
    <style>
      .cls-1 {
        fill: #fff;
        stroke-width: 0px;
      }
    </style>
  </defs>
  <path class="cls-1" d="m64.46,48.85l26.54,26.53c3.38,3.38,3.38,8.86,0,12.24h0c-3.38,3.39-8.86,3.39-12.24,0l-26.54-26.54-26.54,26.54c-3.38,3.38-8.86,3.38-12.24,0h0c-3.38-3.38-3.38-8.86,0-12.24l26.54-26.53L13.44,22.31c-3.38-3.38-3.38-8.86,0-12.24h0c3.38-3.38,8.86-3.38,12.24,0l26.54,26.54,26.54-26.54c3.38-3.38,8.86-3.38,12.24,0h0c3.38,3.38,3.38,8.86,0,12.24l-26.54,26.54Z"/>
</svg>