<?xml version="1.0" encoding="UTF-8"?>
<svg id="Layer_1" data-name="Layer 1" xmlns="http://www.w3.org/2000/svg" viewBox="0 0 100 100">
  <defs>
    <style>
      .cls-1 {
        fill: #fff;
        stroke-width: 0px;
      }
    </style>
  </defs>
  <path class="cls-1" d="m98.67,49.67c0-5.55-15.37-8-17.37-12.83-2.08-5,6.98-17.58,3.21-21.35s-16.35,5.29-21.35,3.21c-4.83-2-7.28-17.37-12.83-17.37s-7.99,15.37-12.82,17.37c-5,2.08-17.58-6.98-21.35-3.21-3.77,3.77,5.28,16.35,3.21,21.35-2,4.83-17.37,7.28-17.37,12.83s15.37,7.99,17.37,12.82c2.07,5-6.98,17.58-3.21,21.35s16.35-5.28,21.35-3.21c4.83,2,7.28,17.37,12.82,17.37s8-15.37,12.83-17.37c5-2.07,17.58,6.98,21.35,3.21,3.77-3.77-5.29-16.35-3.21-21.35,2-4.83,17.37-7.28,17.37-12.82Zm-48.67,13.5c-7.27,0-13.17-5.9-13.17-13.17s5.9-13.17,13.17-13.17,13.17,5.9,13.17,13.17-5.9,13.17-13.17,13.17Z"/>
</svg>